<svg xmlns="http://www.w3.org/2000/svg" viewBox="0 0 216.19 355.93"><defs><style>.cls-1{fill:#e30c34}.cls-2{fill:#fff}.cls-3{fill:#172d72}</style></defs><g id="Layer_2" data-name="Layer 2"><g id="Layer_2-2" data-name="Layer 2"><polygon points=".19 62.35 .19 187.06 108.19 249.41 216.19 187.06 216.19 62.35 108.19 0 .19 62.35" class="cls-1"/><polygon points="108.12 41.63 36.39 83.04 36.39 124.45 72.27 103.73 72.27 187.11 108.13 207.78 108.13 207.78 108.13 83.03 143.98 62.33 108.12 41.63" class="cls-2"/><polygon points="144.19 103.95 144.19 187.06 180.19 166.28 180.19 83.14 144.19 103.95" class="cls-2"/><path d="M35.41,355.93H21.09V298.28H0V286.35H55.74v11.93H35.41Z" class="cls-3"/><path d="M78.65,298.28H65.29V286.35H78.65Zm0,57.65H65.29V304.39H78.65Z" class="cls-3"/><path d="M107.28,355.93H93V286.35h14.31v30.54l27.21-30.54h16.89l-27.78,30,30.74,39.61H137.25L114.44,325.2l-7.16,7.44Z" class="cls-3"/><path d="M180.2,355.93l-23.48-69.58h14.42l15.46,52.4,15.17-52.4h14.42l-23.87,69.58Z" class="cls-3"/></g></g></svg>